<svg width="20" height="14" viewBox="0 0 20 14" fill="none" xmlns="http://www.w3.org/2000/svg">
<path d="M18.2119 2.71879C15.5702 -1.62127 11.5908 1.39816 11.5908 1.39816C11.3327 1.59322 10.8568 1.75359 10.5335 1.75434L9.46759 1.75508C9.14423 1.75545 8.66835 1.59508 8.41064 1.40003C8.41064 1.40003 4.43085 -1.62015 1.78885 2.71991C-0.852409 7.05848 0.212 11.7834 0.212 11.7834C0.398477 12.9403 1.0131 13.7123 2.17299 13.6154C3.32952 13.5188 5.83987 10.4997 5.83987 10.4997C6.04723 10.251 6.48172 10.0477 6.80432 10.0477L13.1945 10.0466C13.5175 10.0466 13.9516 10.2498 14.1586 10.4986C14.1586 10.4986 16.6693 13.5177 17.8277 13.6143C18.9861 13.7112 19.6022 12.9385 19.7876 11.7823C19.7872 11.7823 20.8535 7.05811 18.2119 2.71879ZM7.59872 6.25141H6.22849V7.57204C6.22849 7.57204 5.93833 7.79357 5.48929 7.78798C5.041 7.78126 4.83811 7.5463 4.83811 7.5463V6.25178H3.54397C3.54397 6.25178 3.38248 6.08619 3.33921 5.65021C3.2967 5.21422 3.51786 4.86178 3.51786 4.86178H4.88846V3.49155C4.88846 3.49155 5.17042 3.34051 5.57582 3.35207C5.98159 3.36475 6.27883 3.51729 6.27883 3.51729L6.27324 4.86141H7.56739C7.56739 4.86141 7.7934 5.15157 7.81204 5.50215C7.83069 5.85309 7.59872 6.25141 7.59872 6.25141ZM13.8837 7.75665C13.2836 7.75665 12.7999 7.27144 12.7999 6.6721C12.7999 6.07164 13.2836 5.58755 13.8837 5.58755C14.4812 5.58755 14.9686 6.07164 14.9686 6.6721C14.9686 7.27181 14.4812 7.75665 13.8837 7.75665ZM13.8837 4.77265C13.2836 4.77265 12.7999 4.28781 12.7999 3.68847C12.7999 3.08802 13.2836 2.60392 13.8837 2.60392C14.4812 2.60392 14.9686 3.08802 14.9686 3.68847C14.9686 4.28818 14.4812 4.77265 13.8837 4.77265ZM16.5847 6.37448C15.9846 6.37448 15.5009 5.88964 15.5009 5.28993C15.5009 4.68985 15.9846 4.20539 16.5847 4.20539C17.1821 4.20539 17.6696 4.68985 17.6696 5.28993C17.6696 5.88964 17.1821 6.37448 16.5847 6.37448Z" fill="white"/>
</svg>
