<svg width="14" height="13" viewBox="0 0 14 13" fill="none" xmlns="http://www.w3.org/2000/svg">
<path d="M12.959 4.58414L8.97847 4.00571L7.19833 0.398756C7.12703 0.254343 6.98832 0.182007 6.84961 0.182007L6.85013 10.558L10.4099 12.4296C10.6953 12.5795 11.0285 12.3373 10.9741 12.0197L10.2943 8.05497L13.1745 5.24735C13.4055 5.0223 13.2779 4.63055 12.959 4.58414Z" fill="#FFB820"/>
<path d="M9.45784 7.78352C9.45784 7.78352 10.0718 11.3622 10.0739 11.3741C10.0718 11.3739 6.89911 10.5704 6.84959 10.558C6.84907 10.5577 3.28879 12.4296 3.28879 12.4296C3.00334 12.5795 2.67018 12.3373 2.72462 12.0197L3.40443 8.05497L0.524206 5.24735C0.293197 5.0223 0.420757 4.63055 0.739658 4.58414L4.72022 4.00571L6.50036 0.398756C6.57166 0.254343 6.71037 0.182007 6.84907 0.182007L8.46147 4.71662L12.0669 5.24061L9.45784 7.78352Z" fill="#FFD06A"/>
</svg>
